<svg width="42" height="43" viewBox="0 0 42 43" fill="none" xmlns="http://www.w3.org/2000/svg">
<rect x="42" y="43" width="42" height="43" transform="rotate(-180 42 43)" fill="#EE5A5A"/>
<path d="M20.25 17.1458L17.25 20.1433M17.25 20.1433L20.25 23.1409M17.25 20.1433L24.75 20.1433M30 20.1433C30 21.3243 29.7672 22.4936 29.3149 23.5846C28.8626 24.6757 28.1997 25.667 27.364 26.502C26.5282 27.3371 25.5361 27.9995 24.4442 28.4514C23.3522 28.9033 22.1819 29.1359 21 29.1359C19.8181 29.1359 18.6478 28.9033 17.5558 28.4514C16.4639 27.9995 15.4718 27.3371 14.636 26.502C13.8003 25.667 13.1374 24.6757 12.6851 23.5846C12.2328 22.4936 12 21.3243 12 20.1433C12 17.7583 12.9482 15.471 14.636 13.7846C16.3239 12.0982 18.6131 11.1507 21 11.1507C23.3869 11.1507 25.6761 12.0982 27.364 13.7846C29.0518 15.471 30 17.7583 30 20.1433Z" stroke="black" stroke-width="1.5" stroke-linecap="round" stroke-linejoin="round"/>
</svg>
