<svg width="42" height="43" viewBox="0 0 42 43" fill="none" xmlns="http://www.w3.org/2000/svg">
<rect width="42" height="43" fill="#EE5A5A"/>
<path d="M21.75 24.14L24.75 21.1425M24.75 21.1425L21.75 18.145M24.75 21.1425H17.25M12 21.1425C12 19.9616 12.2328 18.7922 12.6851 17.7012C13.1374 16.6102 13.8003 15.6188 14.636 14.7838C15.4718 13.9487 16.4639 13.2864 17.5558 12.8344C18.6478 12.3825 19.8181 12.1499 21 12.1499C22.1819 12.1499 23.3522 12.3825 24.4442 12.8344C25.5361 13.2864 26.5282 13.9487 27.364 14.7838C28.1997 15.6188 28.8626 16.6102 29.3149 17.7012C29.7672 18.7922 30 19.9616 30 21.1425C30 23.5275 29.0518 25.8148 27.364 27.5012C25.6761 29.1877 23.3869 30.1351 21 30.1351C18.6131 30.1351 16.3239 29.1877 14.636 27.5012C12.9482 25.8148 12 23.5275 12 21.1425Z" stroke="black" stroke-width="1.5" stroke-linecap="round" stroke-linejoin="round"/>
</svg>
