<svg width="60" height="60" viewBox="0 0 60 60" fill="none" xmlns="http://www.w3.org/2000/svg">
<rect width="60" height="60" rx="6" fill="#5C90DE"/>
<path d="M21.132 24.5H23.367L25.077 35H23.427L23.127 32.915V32.945H21.252L20.952 35H19.422L21.132 24.5ZM22.932 31.52L22.197 26.33H22.167L21.447 31.52H22.932ZM27.3025 24.5H29.7325C30.5525 24.5 31.1675 24.72 31.5775 25.16C31.9875 25.6 32.1925 26.245 32.1925 27.095V28.13C32.1925 28.98 31.9875 29.625 31.5775 30.065C31.1675 30.505 30.5525 30.725 29.7325 30.725H28.9525V35H27.3025V24.5ZM29.7325 29.225C30.0025 29.225 30.2025 29.15 30.3325 29C30.4725 28.85 30.5425 28.595 30.5425 28.235V26.99C30.5425 26.63 30.4725 26.375 30.3325 26.225C30.2025 26.075 30.0025 26 29.7325 26H28.9525V29.225H29.7325ZM36.8536 35.15C36.0536 35.15 35.4436 34.925 35.0236 34.475C34.6036 34.015 34.3936 33.36 34.3936 32.51V26.99C34.3936 26.14 34.6036 25.49 35.0236 25.04C35.4436 24.58 36.0536 24.35 36.8536 24.35C37.6536 24.35 38.2636 24.58 38.6836 25.04C39.1036 25.49 39.3136 26.14 39.3136 26.99V27.89H37.7536V26.885C37.7536 26.195 37.4686 25.85 36.8986 25.85C36.3286 25.85 36.0436 26.195 36.0436 26.885V32.63C36.0436 33.31 36.3286 33.65 36.8986 33.65C37.4686 33.65 37.7536 33.31 37.7536 32.63V30.575H36.9286V29.075H39.3136V32.51C39.3136 33.36 39.1036 34.015 38.6836 34.475C38.2636 34.925 37.6536 35.15 36.8536 35.15Z" fill="black"/>
</svg>
