<svg width="38" height="34" viewBox="0 0 38 34" fill="none" xmlns="http://www.w3.org/2000/svg">
<rect width="37.4101" height="34" rx="6" fill="#5C90DE"/>
<path d="M11.9425 12.1001H13.7305L15.0985 20.5001H13.7785L13.5385 18.8321V18.8561H12.0385L11.7985 20.5001H10.5745L11.9425 12.1001ZM13.3825 17.7161L12.7945 13.5641H12.7705L12.1945 17.7161H13.3825ZM16.8789 12.1001H18.8229C19.4789 12.1001 19.9709 12.2761 20.2989 12.6281C20.6269 12.9801 20.7909 13.4961 20.7909 14.1761V15.0041C20.7909 15.6841 20.6269 16.2001 20.2989 16.5521C19.9709 16.9041 19.4789 17.0801 18.8229 17.0801H18.1989V20.5001H16.8789V12.1001ZM18.8229 15.8801C19.0389 15.8801 19.1989 15.8201 19.3029 15.7001C19.4149 15.5801 19.4709 15.3761 19.4709 15.0881V14.0921C19.4709 13.8041 19.4149 13.6001 19.3029 13.4801C19.1989 13.3601 19.0389 13.3001 18.8229 13.3001H18.1989V15.8801H18.8229ZM24.5198 20.6201C23.8798 20.6201 23.3918 20.4401 23.0558 20.0801C22.7198 19.7121 22.5518 19.1881 22.5518 18.5081V14.0921C22.5518 13.4121 22.7198 12.8921 23.0558 12.5321C23.3918 12.1641 23.8798 11.9801 24.5198 11.9801C25.1598 11.9801 25.6478 12.1641 25.9838 12.5321C26.3198 12.8921 26.4878 13.4121 26.4878 14.0921V14.8121H25.2398V14.0081C25.2398 13.4561 25.0118 13.1801 24.5558 13.1801C24.0998 13.1801 23.8718 13.4561 23.8718 14.0081V18.6041C23.8718 19.1481 24.0998 19.4201 24.5558 19.4201C25.0118 19.4201 25.2398 19.1481 25.2398 18.6041V16.9601H24.5798V15.7601H26.4878V18.5081C26.4878 19.1881 26.3198 19.7121 25.9838 20.0801C25.6478 20.4401 25.1598 20.6201 24.5198 20.6201Z" fill="black"/>
</svg>
