<svg width="17" height="16" viewBox="0 0 17 16" fill="none" xmlns="http://www.w3.org/2000/svg">
<path d="M1 13.1704C5.10431 13.1667 9.19078 13.7701 13.1515 14.9648C13.7108 15.1339 14.2692 14.6727 14.2692 14.0288V13.1704M2.15385 1V1.64055C2.15385 1.81043 2.09306 1.97336 1.98487 2.09348C1.87668 2.21361 1.72993 2.2811 1.57692 2.2811H1M1 2.2811V1.96082C1 1.43045 1.38769 1 1.86538 1H14.8462M1 2.2811V9.96768M14.8462 1V1.64055C14.8462 1.99413 15.1046 2.2811 15.4231 2.2811H16M14.8462 1H15.1346C15.6123 1 16 1.43045 16 1.96082V10.288C16 10.8183 15.6123 11.2488 15.1346 11.2488H14.8462M1 9.96768V10.288C1 10.5428 1.09117 10.7872 1.25347 10.9674C1.41576 11.1475 1.63587 11.2488 1.86538 11.2488H2.15385M1 9.96768H1.57692C1.72993 9.96768 1.87668 10.0352 1.98487 10.1553C2.09306 10.2754 2.15385 10.4383 2.15385 10.6082V11.2488M14.8462 11.2488V10.6082C14.8462 10.4383 14.9069 10.2754 15.0151 10.1553C15.1233 10.0352 15.2701 9.96768 15.4231 9.96768H16M14.8462 11.2488H2.15385M10.8077 6.12439C10.8077 6.80392 10.5646 7.45563 10.1318 7.93613C9.69901 8.41664 9.11204 8.68658 8.5 8.68658C7.88796 8.68658 7.30099 8.41664 6.86821 7.93613C6.43544 7.45563 6.19231 6.80392 6.19231 6.12439C6.19231 5.44485 6.43544 4.79315 6.86821 4.31264C7.30099 3.83214 7.88796 3.56219 8.5 3.56219C9.11204 3.56219 9.69901 3.83214 10.1318 4.31264C10.5646 4.79315 10.8077 5.44485 10.8077 6.12439ZM13.1154 6.12439H13.1215V6.13122H13.1154V6.12439ZM3.88462 6.12439H3.89077V6.13122H3.88462V6.12439Z" stroke="white" stroke-width="1.5" stroke-linecap="round" stroke-linejoin="round"/>
</svg>
